<svg width="100" height="100" xmlns="http://www.w3.org/2000/svg">
 <defs>
  <clipPath id="clip-path">
   <circle fill="none" id="svg_1" r="40" cy="55.782" cx="50.037" class="cls-1"/>
  </clipPath>
 </defs>
 <title/>
 <g>
  <title>background</title>
  <rect fill="none" id="canvas_background" height="102" width="102" y="-1" x="-1"/>
 </g>
 <g>
  <title>Layer 1</title>
  <polygon stroke-linejoin="round" stroke-linecap="round" stroke="#45413c" clip-path="url(#clip-path)" fill="none" id="svg_4" points="36.295 97.855 60 97.683 60 96.283 36.295 96.283 36.295 97.855" class="cls-4"/>
  <path stroke="#45413c" stroke-linejoin="round" stroke-linecap="round" clip-path="url(#clip-path)" fill="#191919" id="svg_8" d="m57.108286,44.548428a4.123,4.123 0 1 0 -8.245,0l0,2.061a4.123,4.123 0 0 0 -8.245,0l0,2.062a4.123,4.123 0 1 0 -8.245,0l0,5.738c0,10.62 4.122,12.481 4.122,18.552l0,24.493l23.705,-0.172l0,-16.076a6.278,6.278 0 0 1 2.451,-4.977l2.7,-2.141l0.935,-19.679l-9.362,-2.663l0.184,-7.198z" class="cls-4"/>
  <line stroke="#45413c" stroke-linejoin="round" stroke-linecap="round" clip-path="url(#clip-path)" fill="none" id="svg_9" y2="49.072" y1="47.01" x2="48.663" x1="48.663" class="cls-4"/>
  <path fill="#ff6196" clip-path="url(#clip-path)" id="svg_15" d="m49.046,51.846c0,-0.084 0,-0.168 -0.008,-0.253l-0.538,-8.693l0,6.85a4.267,4.267 0 0 0 0.546,2.096z" class="cls-6"/>
  <path stroke="null" fill="#ff6196" clip-path="url(#clip-path)" id="svg_17" d="m56.979,50.64a4.272,4.272 0 0 0 0.093,-0.89l0,-10.65l-0.348,9.936a4.186,4.186 0 0 0 0.255,1.604z" class="cls-6"/>
  <path stroke="#45413c" stroke-linejoin="round" stroke-linecap="round" clip-path="url(#clip-path)" fill="#000000" id="svg_18" d="m36.470714,55.959714a4.122,4.122 0 0 1 -4.47,-3.742l-0.761,-8.569a4.123,4.123 0 0 1 8.213,-0.729l0.761,8.569a4.124,4.124 0 0 1 -3.743,4.471z" class="cls-4"/>
  <path stroke="#333333" stroke-linejoin="round" stroke-linecap="round" clip-path="url(#clip-path)" fill="#191919" id="svg_19" d="m44.805714,56.157a4.3,4.3 0 0 1 -4.563,-4.031l-0.766,-12.355a4.306,4.306 0 0 1 8.595,-0.533l0.766,12.355a4.306,4.306 0 0 1 -4.032,4.564z" class="cls-4"/>
  <path stroke="#45413c" stroke-linejoin="round" stroke-linecap="round" clip-path="url(#clip-path)" fill="#000000" id="svg_20" d="m52.585714,53.436142a4.287,4.330456 0 0 1 -4.286,-4.330457l0,-11.364038a4.287,4.330456 0 0 1 8.573,0l0,11.364038a4.286,4.329446 0 0 1 -4.287,4.330457z" class="cls-4"/>
  <path stroke="#45413c" stroke-linejoin="round" stroke-linecap="round" clip-path="url(#clip-path)" fill="#191919" id="svg_21" d="m60.371428,53.984884a4.2,4.156382 0 0 1 -4.048,-4.297896l0.386,-10.899616a4.2,4.156382 0 0 1 8.391,0.290947l-0.386,10.899616a4.2,4.156382 0 0 1 -4.343,4.00695z" class="cls-4"/>
  <path stroke="#45413c" stroke-linejoin="round" stroke-linecap="round" clip-path="url(#clip-path)" fill="#191919" id="svg_25" d="m59.799714,81.607a6.278,6.278 0 0 1 2.451,-4.977l5.718,-4.4a13.641,13.641 0 0 0 5.477,-10.62l0,-6.967a6.189,6.189 0 0 0 -6.188,-6.189l-8.658,0a4.111,4.111 0 1 0 0,8.221l6.91,0c-7.4,0 -13.952,6.2 -13.952,13.6l0,3.092" class="cls-4"/>
  <line stroke="#45413c" style="vector-effect: non-scaling-stroke;" transform="matrix(1,0,0,1,0,0) matrix(1,0,0,1,0,0) matrix(1,0,0,1,0,0) " stroke-linejoin="round" stroke-linecap="round" clip-path="url(#clip-path)" fill="none" id="svg_26" y2="56.676" y1="56.676" x2="67.853" x1="65.699" class="cls-4"/>
 </g>
</svg>